<svg xmlns="http://www.w3.org/2000/svg" width="7.38" height="13.75" viewBox="0 0 7.38 13.75"><defs><style>.cls-1 {fill: #ffffff;fill-rule: evenodd;}</style></defs><path class="cls-1" d="M1018.88,621.15a1.271,1.271,0,0,1-.16-0.39,1.805,1.805,0,0,1-.06-0.454,2.047,2.047,0,0,1,.08-0.58,1.881,1.881,0,0,1,.25-0.483,2.9,2.9,0,0,1,.4-0.459c0.17-.154.36-0.321,0.58-0.5,0.32-.266.6-0.524,0.85-0.774a4.406,4.406,0,0,0,.62-0.784,3.459,3.459,0,0,0,.38-0.868,3.635,3.635,0,0,0,.13-1.025,3.406,3.406,0,0,0-.31-1.526,2.811,2.811,0,0,0-.86-1.044,3.7,3.7,0,0,0-1.3-.6,6.4,6.4,0,0,0-1.6-.19,7.192,7.192,0,0,0-1.75.213,5.691,5.691,0,0,0-1.55.64v2.793a4.83,4.83,0,0,1,1.47-.914,4.155,4.155,0,0,1,1.5-.3,1.7,1.7,0,0,1,.61.1,1.318,1.318,0,0,1,.46.279,1.188,1.188,0,0,1,.3.422,1.544,1.544,0,0,1,.1.533,1.936,1.936,0,0,1-.09.608,2.406,2.406,0,0,1-.28.529,5.142,5.142,0,0,1-.45.51c-0.18.17-.38,0.354-0.62,0.552a5.03,5.03,0,0,0-.58.561,2.981,2.981,0,0,0-.42.594,2.547,2.547,0,0,0-.25.663,3.17,3.17,0,0,0-.08.78,2.882,2.882,0,0,0,.05.57,2.688,2.688,0,0,0,.14.543h2.44Zm0.14,3.627a1.45,1.45,0,0,0,.47-1.1,1.387,1.387,0,0,0-.48-1.085,1.749,1.749,0,0,0-1.22-.436,1.792,1.792,0,0,0-1.23.436,1.383,1.383,0,0,0-.49,1.085,1.447,1.447,0,0,0,.49,1.1,1.938,1.938,0,0,0,2.46.009h0Z" transform="translate(-1014.56 -611.469)"/></svg>
